<svg width="26" height="26" viewBox="0 0 26 26" fill="none" xmlns="http://www.w3.org/2000/svg">
<g clip-path="url(#clip0_417_904)">
<mask id="mask0_417_904" style="mask-type:alpha" maskUnits="userSpaceOnUse" x="0" y="0" width="26" height="26">
<path d="M26 13C26 5.8203 20.1797 0 13 0C5.8203 0 0 5.8203 0 13C0 20.1797 5.8203 26 13 26C20.1797 26 26 20.1797 26 13Z" fill="white"/>
</mask>
<g mask="url(#mask0_417_904)">
<path d="M26 0H0V26H26V0Z" fill="#F1C733"/>
<path d="M24.3157 3.90865C17.5461 -0.158948 8.76077 2.03148 4.69317 8.8011C0.625568 15.5707 2.81599 24.356 9.58562 28.4236C16.3552 32.4912 25.1406 30.3008 29.2082 23.5312C33.2758 16.7616 31.0853 7.97626 24.3157 3.90865Z" fill="#C1D7E0"/>
<path d="M5.80371 16.6738C5.81625 17.392 6.20867 18.0741 6.89464 18.5702C7.58062 19.0662 8.50396 19.3354 9.46154 19.3187C10.4191 19.302 11.3325 19.0007 12.0007 18.481C12.669 17.9614 13.0374 17.266 13.0248 16.5478" fill="#27272A"/>
<path d="M6.82429 13.0443C6.81733 12.6455 6.56921 12.3264 6.2701 12.3316C5.97099 12.3368 5.73416 12.6644 5.74112 13.0632C5.74808 13.462 5.9962 13.7811 6.29531 13.7758C6.59442 13.7706 6.83125 13.4431 6.82429 13.0443Z" fill="#27272A"/>
<path d="M12.6016 12.9434C12.5947 12.5446 12.3466 12.2256 12.0474 12.2308C11.7483 12.236 11.5115 12.5635 11.5185 12.9623C11.5254 13.3612 11.7735 13.6802 12.0727 13.675C12.3718 13.6698 12.6086 13.3423 12.6016 12.9434Z" fill="#27272A"/>
</g>
</g>
<defs>
<clipPath id="clip0_417_904">
<rect width="26" height="26" fill="white"/>
</clipPath>
</defs>
</svg>
