<svg width="1440" height="800" viewBox="0 0 1440 1559" fill="none" xmlns="http://www.w3.org/2000/svg">
<path d="M329.86 782.343L171.746 1068.96L116.73 1036.81L287.74 772.544L329.86 782.343Z" fill="#F0F7FA"/>
<path d="M188.65 924.131L210.892 937.126L143.234 1052.89L115.73 1036.81L188.65 924.131Z" fill="#193C47"/>
<path d="M412.963 804.143L369.046 803.557L235.887 1102.58L307.2 1136.48L412.963 804.143Z" fill="#F0F7FA"/>
<path d="M234.886 1102.58L298.046 960.742L322.889 971.411L266.766 1117.73L234.886 1102.58Z" fill="#193C47"/>
<path d="M510.234 823.238L466.092 822.303L335.654 1145.76L405.808 1172.67L510.234 823.238Z" fill="#F0F7FA"/>
<path d="M397.227 990.6L430.641 999.668L371.458 1159.88L334.652 1145.76L397.227 990.6Z" fill="#193C47"/>
<path d="M618.746 840.418L516.093 1207.89L435.786 1180.49L568.942 840.951L618.746 840.418Z" fill="#F0F7FA"/>
<path d="M495.612 1020.3L526.608 1028.33L471.211 1193.6L432.785 1180.49L495.612 1020.3Z" fill="#193C47"/>
<path d="M703.939 831.82L670.463 1228.02L582.439 1218.21L649.987 842.708L703.939 831.82Z" fill="#F0F7FA"/>
<path d="M612.134 1047.57L651.777 1050.78L629.318 1223.54L581.439 1218.21L612.134 1047.57Z" fill="#193C47"/>
<path d="M792.956 843.451L777.297 1254.59L695.64 1253.06L739.527 857.875L792.956 843.451Z" fill="#F0F7FA"/>
<path d="M714.753 1071.93L752.515 1071.93L742.062 1253.94L694.641 1253.05L714.753 1071.93Z" fill="#193C47"/>
<path d="M862.398 771.403L898.698 1190.48L818.407 1201.8L813.775 790.371L862.398 771.403Z" fill="#F0F7FA"/>
<path d="M815.46 1028.95L849.035 1022.81L859.084 1196.92L817.407 1202.8L815.46 1028.95Z" fill="#193C47"/>
<path d="M956.33 707.419L900.053 732.714L926.712 1152.53L1014.57 1132.27L956.33 707.419Z" fill="#F0F7FA"/>
<path d="M914.938 983.928L950.685 975.538L968.377 1143.68L925.712 1153.53L914.938 983.928Z" fill="#193C47"/>
<path d="M1009 747.806L1067.24 1172.65L1164.86 1137.54L1067.13 716.706L1009 747.806Z" fill="#F0F7FA"/>
<path d="M1043.23 1005.81L1081.74 990.996L1111.99 1157.2L1066.24 1173.65L1043.23 1005.81Z" fill="#193C47"/>
<path d="M1073.22 633.889L1254.49 1026.05L1333.81 961.299L1120.51 587.961L1073.22 633.889Z" fill="#F0F7FA"/>
<path d="M1178.95 865.789L1212.32 831.605L1295.5 992.767L1253.49 1027.05L1178.95 865.789Z" fill="#193C47"/>
<path d="M71.8522 1004.47L17.881 968.874L208.562 725.95L243.002 740.286L71.8522 1004.47Z" fill="#F0F7FA"/>
<path d="M16.882 968.874L104.829 856.842L127.293 869.99L46.152 988.177L16.882 968.874Z" fill="#193C47"/>
<path d="M-22.2942 908.61L-64.5169 860.147L166.387 674.142L202.183 696.53L-22.2942 908.61Z" fill="#F0F7FA"/>
<path d="M-65.5179 860.147L27.958 784.832L44.6675 805.91L-43.6781 885.211L-65.5179 860.147Z" fill="#193C47"/>
<path d="M-93.8737 845.746L-136.894 792.735L86.8532 638.399L111.812 658.259L-93.8737 845.746Z" fill="#F0F7FA"/>
<path d="M34.9533 621.677L-154.032 776.314L-190.154 729.708L7.68664 602.46L34.9533 621.677Z" fill="#F0F7FA"/>
</svg>
