<svg xmlns="http://www.w3.org/2000/svg" version="1.1" xmlns:xlink="http://www.w3.org/1999/xlink" viewBox="0 0 1920 1080" style="overflow: hidden; height: 85vh;" class="overflow-hidden rounded-md drop-shadow-lg transition duration-300"><rect width="1920" height="1080" fill="#06020b"></rect><g clip-path="url(&quot;#SvgjsClipPath1232&quot;)"><g transform="matrix(0.723718449707313,0.8937178556755163,-0.8937178556755163,0.723718449707313,743.3917286082474,-694.3944939477005)"><path d="M0,-1080C1.9550802307214166,-1001.7754657836201,3.09941859736133,-773.3345141377059,11.730481384328499,-610.6527947017207C20.36154417129567,-447.9710752657355,58.14529280090754,-248.5859641268401,51.78637672180301,-103.90968338408905C45.42746064269848,40.76659735866201,-14.141788084063691,112.2565995123856,-26.42301509029869,257.4048897547856C-38.70424209653369,402.55317999718557,-28.53771282182826,601.258797933707,-21.900985315606988,766.9800580703109C-15.264257809385715,932.7013182069147,3.315916509118546,1100.1640468841695,13.397349947028943,1251.7324505744089C23.47878338493934,1403.3008542646483,40.82050696969355,1525.0125553074822,38.58761531185539,1676.3904802117474C36.35472365401723,1827.7684051160127,6.431269218642565,2079.3984133686245,0,2160L 1920 2160 L 1920 -1080 Z" fill="url(&quot;#SvgjsLinearGradient1227&quot;)"></path><path d="M384,-1080C386.41909292140116,-1003.6032488884475,391.9933118471258,-772.3119965781783,398.51455752840684,-621.619493330685C405.03580320968786,-470.92699008319175,426.06143189639295,-327.87655024221465,423.12747408768615,-175.84498051504062C420.19351627897936,-23.81341078786656,391.6777548181242,129.56229512602857,380.910810676166,290.5699250323592C370.14386653420786,451.57755493868984,365.1204547488976,641.848489826592,358.5258092359372,790.2007989229432C351.93116372297675,938.5531080192945,339.21443589099874,1024.8919669458799,341.3429375984036,1180.6837796104671C343.4714393058084,1336.4755922750544,364.18730908009996,1561.7323048455446,371.296819480366,1724.9516749104669C378.4063298806321,1888.1710449753891,381.8828032467277,2087.4919458184113,384,2160L 1920 2160 L 1920 -1080 Z" fill="url(&quot;#SvgjsLinearGradient1228&quot;)"></path><path d="M768,-1080C771.1841503112023,-1009.1199390002763,785.1199164636265,-815.5388907359513,787.104901867214,-654.719634001658C789.0898872708016,-493.90037726736483,788.8797698573707,-278.71603712273236,779.909912421525,-115.08445959424068C770.9400549856792,48.54711793425102,726.1535387543164,175.33292600617946,733.2857572521398,327.0698311692921C740.4179757499631,478.80673633240474,822.3035878277767,636.8912891362177,822.7032234084651,795.3369713844352C823.1028589891534,953.7826536326527,744.6996688631791,1122.3716090683358,735.6835707362703,1277.7439246585968C726.6674726093615,1433.1162402488578,763.2205631030578,1580.5281857024345,768.6066346470127,1727.5708649260016C773.9927061909676,1874.6135441495687,768.1011057745021,2087.928477487667,768,2160L 1920 2160 L 1920 -1080 Z" fill="url(&quot;#SvgjsLinearGradient1229&quot;)"></path><path d="M1152,-1080C1160.7419722896507,-975.8112499049806,1203.257784648349,-675.1645077806786,1204.4518337379045,-454.867499429884C1205.6458828274601,-234.57049107908938,1174.3227833022045,19.61561599415407,1159.1642945373342,241.78205010476768C1144.0058057724639,463.9484842153813,1119.4133164624723,667.3127808395698,1113.5009011486823,878.1311052337976C1107.5884858348923,1088.9494296280254,1117.273286179374,1293.0471806757678,1123.6898026545937,1506.6919964701349C1130.1063191298133,1720.336812264502,1147.2816337757656,2051.1153327450224,1152,2160L 1920 2160 L 1920 -1080 Z" fill="url(&quot;#SvgjsLinearGradient1230&quot;)"></path><path d="M1536,-1080C1544.889585094164,-983.393321538844,1595.957378313072,-684.0709896304076,1589.3375105649834,-500.35992923306424C1582.7176428168948,-316.6488688357209,1504.8165219603832,-145.79611913033938,1496.2807935114683,22.26636238405999C1487.7450650625535,190.32884389845935,1525.7377310359002,322.1469709032989,1538.123139871494,508.0149598533319C1550.5085487070878,693.8829488033649,1580.4206184270463,953.6382462691171,1570.5932465250307,1137.4742960842582C1560.7658746230152,1321.3103458993992,1484.924449546906,1440.610308091555,1479.158908459401,1611.0312587441786C1473.3933673718957,1781.4522093968021,1526.5264847432336,2068.5052097906964,1536,2160L 1920 2160 L 1920 -1080 Z" fill="url(&quot;#SvgjsLinearGradient1231&quot;)"></path></g></g><defs><linearGradient x1="0.1" y1="0" x2="0" y2="1" id="SvgjsLinearGradient1227"><stop stop-color="#06020b" offset="0"></stop><stop stop-color="#04020b" offset="0"></stop></linearGradient><linearGradient x1="0.1" y1="0" x2="0" y2="1" id="SvgjsLinearGradient1228"><stop stop-color="#341160" offset="0"></stop><stop stop-color="#271160" offset="0.2"></stop></linearGradient><linearGradient x1="0.1" y1="0" x2="0" y2="1" id="SvgjsLinearGradient1229"><stop stop-color="#6321b5" offset="0"></stop><stop stop-color="#4a21b5" offset="0.4"></stop></linearGradient><linearGradient x1="0.1" y1="0" x2="0" y2="1" id="SvgjsLinearGradient1230"><stop stop-color="#9559e1" offset="0"></stop><stop stop-color="#7e59e1" offset="0.6"></stop></linearGradient><linearGradient x1="0.1" y1="0" x2="0" y2="1" id="SvgjsLinearGradient1231"><stop stop-color="#cbaef0" offset="0"></stop><stop stop-color="#c0aef0" offset="0.8"></stop></linearGradient><clipPath id="SvgjsClipPath1232"><rect width="1920" height="1080"></rect></clipPath></defs></svg>