<svg width="1740" height="1600" viewBox="0 0 1440 1515" fill="none" xmlns="http://www.w3.org/2000/svg">
<path d="M1762.88 835.697C1725.54 701.689 1681.32 557.664 1565.5 476.422C1395.33 356.931 1142.43 421.391 955.49 327.131C807.859 252.66 728.058 92.8563 590.048 3.29823C465.695 -77.3719 304.307 -92.9275 153.851 -69.9965C3.3951 -47.0654 -139.406 11.0061 -280.387 68.6217L-534.032 172.22L-49.6913 1493.58C638.529 1186.3 1033.02 1036.16 1762.88 835.697Z" fill="#193C47"/>
<path d="M3.19773 -114.381C6.31905 -115.392 8.95136 -117.504 10.5555 -120.286C12.1029 -123.098 12.461 -126.353 11.5533 -129.355C9.36909 -135.405 2.84489 -139.065 -3.79734 -137.012C-6.91746 -136.005 -9.54767 -133.893 -11.1448 -131.111C-12.6918 -128.295 -13.0488 -125.036 -12.1397 -122.032C-9.95854 -115.991 -3.44447 -112.328 3.19773 -114.381ZM273.807 -19.6256C277.614 -20.8024 275.878 -26.4561 272.06 -25.2762C268.243 -24.0963 269.99 -18.4457 273.807 -19.6256ZM50.1508 171.351C53.9581 170.174 52.2188 164.51 48.4013 165.69C44.5838 166.87 46.3333 172.531 50.1508 171.351ZM307.881 157.546C311.689 156.369 309.949 150.706 306.132 151.885C302.314 153.065 304.064 158.726 307.881 157.546ZM143.145 382.982C146.952 381.806 145.216 376.152 141.399 377.332C137.581 378.512 139.317 384.166 143.145 382.982ZM-428.842 194.265C-425.035 193.088 -426.774 187.424 -430.591 188.604C-434.409 189.784 -432.669 195.448 -428.842 194.265ZM-76.6236 62.3513C-72.8061 61.1714 -74.5556 55.511 -78.3731 56.691C-82.1906 57.8709 -80.4411 63.5312 -76.6236 62.3513ZM952.156 412.835C955.963 411.658 954.224 405.995 950.406 407.175C946.589 408.355 948.338 414.015 952.156 412.835ZM136.701 72.1461C140.509 70.9694 138.772 65.3156 134.955 66.4956C131.137 67.6755 132.874 73.3292 136.701 72.1461ZM-35.0555 319.523C-31.238 318.344 -32.9876 312.683 -36.805 313.863C-40.6225 315.043 -38.873 320.703 -35.0555 319.523ZM192.8 242.51C196.608 241.333 194.868 235.67 191.051 236.85C187.233 238.03 188.983 243.69 192.8 242.51ZM994.507 580.219C998.314 579.042 996.575 573.379 992.757 574.559C988.94 575.739 990.689 581.399 994.507 580.219ZM1158.3 838.961C1162.12 837.781 1160.37 832.121 1156.55 833.301C1152.74 834.481 1154.49 840.141 1158.3 838.961ZM1000.17 709.496C1003.98 708.316 1002.23 702.656 998.416 703.836C994.599 705.016 996.348 710.676 1000.17 709.496ZM1198.82 637.182C1202.64 636.002 1200.89 630.341 1197.07 631.521C1193.25 632.701 1195 638.361 1198.82 637.182ZM1086.69 471.647C1090.5 470.47 1088.76 464.806 1084.94 465.986C1081.13 467.166 1082.88 472.827 1086.69 471.647ZM264.428 1115.24C268.246 1114.06 266.496 1108.4 262.679 1109.58C258.861 1110.76 260.611 1116.42 264.428 1115.24ZM39.1221 1323.19C42.9293 1322.01 41.1901 1316.35 37.3726 1317.53C33.5551 1318.71 35.2944 1324.37 39.1221 1323.19ZM-122.198 899.897C-118.391 898.72 -120.13 893.056 -123.948 894.236C-127.765 895.416 -126.016 901.077 -122.198 899.897ZM11.4192 1073.33C15.2366 1072.15 13.5004 1066.5 9.67267 1067.68C5.84494 1068.87 7.60168 1074.51 11.4192 1073.33ZM65.9184 929.125C69.7359 927.945 67.9864 922.284 64.1688 923.464C60.3514 924.644 62.1009 930.305 65.9184 929.125ZM114.083 1183.55C117.89 1182.37 116.151 1176.71 112.333 1177.89C108.516 1179.07 110.255 1184.73 114.083 1183.55ZM-118.924 1095.42C-115.106 1094.24 -116.856 1088.58 -120.673 1089.76C-124.491 1090.94 -122.741 1096.6 -118.924 1095.42ZM382.025 1224.48C385.832 1223.3 384.093 1217.64 380.275 1218.82C376.458 1220 378.207 1225.66 382.025 1224.48ZM440.749 995.233C444.567 994.053 442.827 988.39 439 989.573C435.172 990.756 436.932 996.413 440.749 995.233ZM841.597 1133.4C845.415 1132.22 843.675 1126.56 839.848 1127.74C836.02 1128.92 837.78 1134.58 841.597 1133.4ZM775.021 881.001C778.828 879.824 777.089 874.161 773.272 875.341C769.454 876.521 771.204 882.181 775.021 881.001ZM701.085 1023.96C704.892 1022.78 703.153 1017.12 699.335 1018.3C695.518 1019.48 697.267 1025.14 701.085 1023.96ZM947.566 1056.97C951.383 1055.79 949.634 1050.13 945.816 1051.31C941.999 1052.49 943.748 1058.15 947.566 1056.97ZM678.529 790.713C682.336 789.536 680.597 783.873 676.779 785.052C672.962 786.232 674.711 791.893 678.529 790.713ZM1513.94 769.073C1517.75 767.896 1516.01 762.243 1512.19 763.423C1508.38 764.603 1510.12 770.253 1513.94 769.073ZM1392.44 832.106C1396.25 830.93 1394.51 825.266 1390.69 826.446C1386.87 827.626 1388.61 833.289 1392.44 832.106ZM1647.07 669.695C1650.88 668.518 1649.14 662.855 1645.32 664.035C1641.5 665.215 1643.25 670.875 1647.07 669.695ZM1349.87 645.083C1353.68 643.906 1351.94 638.243 1348.12 639.423C1344.3 640.603 1346.05 646.263 1349.87 645.083Z" fill="white"/>
<path d="M299.191 74.7657C302.313 73.7545 304.945 71.642 306.549 68.8608C308.089 66.0432 308.446 62.7873 307.544 59.7819C305.363 53.7409 298.836 50.0713 292.193 52.1244C289.072 53.1356 286.44 55.2481 284.836 58.0292C283.295 60.8468 282.938 64.1028 283.841 67.1082C286.022 73.1492 292.549 76.8187 299.191 74.7657ZM1014.4 488.282C1017.52 487.271 1020.16 485.158 1021.76 482.377C1023.31 479.561 1023.66 476.303 1022.76 473.298C1020.57 467.257 1014.05 463.588 1007.41 465.641C1004.29 466.648 1001.65 468.76 1000.06 471.542C998.511 474.358 998.154 477.617 999.063 480.621C1001.24 486.662 1007.76 490.335 1014.4 488.282ZM-17.3522 1205.3C-14.2321 1204.3 -11.6019 1202.18 -10.0048 1199.4C-8.45959 1196.59 -8.1015 1193.34 -9.00691 1190.33C-11.1911 1184.28 -17.7051 1180.62 -24.3473 1182.67C-27.4687 1183.68 -30.1009 1185.8 -31.7051 1188.58C-33.2519 1191.39 -33.609 1194.65 -32.6999 1197.66C-30.5188 1203.7 -23.9944 1207.36 -17.3522 1205.3ZM86.9005 300.046C90.0175 299.034 92.6457 296.922 94.248 294.144C95.7927 291.328 96.1496 288.07 95.2428 285.065C93.0617 279.024 86.5446 275.352 79.9024 277.405C76.7811 278.416 74.1487 280.528 72.5446 283.31C70.9999 286.126 70.6429 289.384 71.5498 292.389C73.7309 298.43 80.248 302.102 86.9005 300.046ZM218.562 145.279C222.379 144.1 220.633 138.449 216.815 139.629C212.998 140.809 214.744 146.459 218.562 145.279ZM415.629 -4.03126C419.436 -5.20803 417.697 -10.8715 413.88 -9.69158C410.062 -8.51165 411.812 -2.85134 415.629 -4.03126ZM39.244 17.7345C43.0513 16.5577 41.312 10.8942 37.4945 12.0741C33.677 13.254 35.4266 18.9144 39.244 17.7345ZM11.0079 100.468C14.8151 99.2911 13.0789 93.6374 9.2614 94.8173C5.44392 95.9972 7.18018 101.651 11.0079 100.468ZM-58.1353 204.081C-54.3178 202.901 -56.0674 197.241 -59.8848 198.421C-63.7023 199.601 -61.9528 205.261 -58.1353 204.081ZM271.029 342.888C274.846 341.708 273.097 336.048 269.279 337.227C265.462 338.407 267.211 344.068 271.029 342.888ZM441.571 503.711C445.379 502.534 443.639 496.871 439.822 498.051C436.004 499.231 437.754 504.891 441.571 503.711ZM291.361 545.03C295.178 543.851 293.439 538.187 289.611 539.37C285.784 540.553 287.543 546.21 291.361 545.03ZM806.9 380.587C810.718 379.407 808.968 373.747 805.15 374.927C801.333 376.107 803.083 381.767 806.9 380.587ZM906.119 528.563C909.927 527.386 908.187 521.722 904.37 522.902C900.552 524.082 902.302 529.742 906.119 528.563ZM1103.61 692.098C1107.42 690.921 1105.68 685.258 1101.86 686.437C1098.05 687.617 1099.8 693.278 1103.61 692.098ZM1247.32 742.101C1251.12 740.924 1249.39 735.271 1245.57 736.451C1241.75 737.63 1243.49 743.284 1247.32 742.101ZM1048.82 851.946C1052.63 850.77 1050.89 845.106 1047.08 846.286C1043.26 847.466 1045 853.129 1048.82 851.946ZM1145.11 990.621C1148.93 989.441 1147.18 983.781 1143.36 984.961C1139.55 986.141 1141.3 991.801 1145.11 990.621ZM1691.94 806.289C1695.76 805.109 1694.01 799.449 1690.19 800.629C1686.38 801.808 1688.13 807.469 1691.94 806.289ZM1555.27 874.056C1559.08 872.876 1557.33 867.215 1553.52 868.395C1549.7 869.575 1551.45 875.236 1555.27 874.056ZM375.049 1101.03C378.856 1099.85 377.12 1094.2 373.302 1095.38C369.485 1096.56 371.231 1102.21 375.049 1101.03ZM170.822 1304.52C174.64 1303.34 172.89 1297.67 169.073 1298.85C165.255 1300.03 167.005 1305.7 170.822 1304.52ZM156.818 1000.05C160.626 998.876 158.886 993.213 155.069 994.393C151.251 995.573 153.001 1001.23 156.818 1000.05ZM-66.0391 1005.12C-62.2318 1003.95 -63.9711 998.285 -67.7886 999.465C-71.6061 1000.64 -69.8565 1006.3 -66.0391 1005.12ZM-215.567 737.443C-211.76 736.266 -213.499 730.602 -217.317 731.782C-221.134 732.962 -219.385 738.623 -215.567 737.443ZM-33.2234 1388.01C-29.4162 1386.83 -31.1555 1381.17 -34.973 1382.35C-38.7904 1383.53 -37.0409 1389.19 -33.2234 1388.01ZM820.826 1021.95C824.644 1020.77 822.905 1015.1 819.077 1016.28C815.249 1017.47 817.009 1023.13 820.826 1021.95ZM-489.992 201.309C-486.175 200.129 -487.914 194.465 -491.742 195.649C-495.57 196.832 -493.83 202.495 -489.992 201.309ZM-382.276 298.345C-378.459 297.165 -380.208 291.505 -384.026 292.685C-387.843 293.865 -386.094 299.525 -382.276 298.345ZM701.941 879.448C705.758 878.269 704.009 872.608 700.191 873.788C696.374 874.968 698.124 880.628 701.941 879.448ZM345.779 967.984C349.586 966.808 347.847 961.144 344.029 962.324C340.212 963.504 341.961 969.164 345.779 967.984Z" fill="#234D60"/>
</svg>
