<svg width="84" height="22" viewBox="0 0 84 22" fill="none" xmlns="http://www.w3.org/2000/svg">
<path d="M11.376 10.312C12.784 10.6533 13.8187 11.2293 14.48 12.04C15.1627 12.8293 15.504 13.8747 15.504 15.176C15.504 19.1653 12.3787 21.16 6.128 21.16C4.29333 21.16 2.416 21.1067 0.496 21L0.72 14.856L0.496 0.391998L7.824 0.359999C9.936 0.359999 11.5787 0.807999 12.752 1.704C13.9253 2.57867 14.512 3.848 14.512 5.512C14.512 6.62133 14.2347 7.592 13.68 8.424C13.1467 9.256 12.3787 9.88533 11.376 10.312ZM10.064 6.088C10.064 5.14933 9.78667 4.488 9.232 4.104C8.67733 3.69867 7.70667 3.496 6.32 3.496H4.752L4.656 9.096L7.664 9.192C8.47467 8.97867 9.072 8.62667 9.456 8.136C9.86133 7.64533 10.064 6.96267 10.064 6.088ZM6.864 18.056C8.208 18.056 9.24267 17.7893 9.968 17.256C10.7147 16.7227 11.088 15.9547 11.088 14.952C11.088 13.4373 10.1067 12.4987 8.144 12.136L4.592 12.2L4.56 14.472L4.656 17.928C5.40267 18.0133 6.13867 18.056 6.864 18.056ZM31.9873 17.416L32.2433 17.768L31.9553 21H19.0273L19.2513 14.856L19.0273 0.391998H32.0833L32.3393 0.743999L32.0193 3.976L27.0913 3.816L23.3793 3.848L23.2833 8.808L26.8353 8.872L30.1953 8.776L30.4513 9.096L30.1633 12.328L26.5153 12.232L23.2193 12.264L23.1873 14.472L23.2833 17.576L26.8993 17.608L31.9873 17.416ZM41.9325 0.136C43.6818 0.136 45.4205 0.488 47.1485 1.192L46.4445 4.936L45.8045 5.192C45.0792 4.68 44.3218 4.27467 43.5325 3.976C42.7645 3.67733 42.0605 3.528 41.4205 3.528C40.5672 3.528 39.8845 3.76267 39.3725 4.232C38.8605 4.68 38.6045 5.20267 38.6045 5.8C38.6045 6.41867 38.8818 6.94133 39.4365 7.368C40.0125 7.79467 40.9085 8.296 42.1245 8.872C43.2978 9.40533 44.2472 9.90667 44.9725 10.376C45.7192 10.824 46.3485 11.4213 46.8605 12.168C47.3938 12.9147 47.6605 13.832 47.6605 14.92C47.6605 16.0933 47.3405 17.1707 46.7005 18.152C46.0605 19.112 45.1538 19.88 43.9805 20.456C42.8072 21.0107 41.4525 21.288 39.9165 21.288C37.8898 21.288 35.8525 20.8507 33.8045 19.976L34.4125 15.944L34.8925 15.688C35.7458 16.4347 36.6738 17.0107 37.6765 17.416C38.7005 17.8 39.6072 17.992 40.3965 17.992C41.3352 17.992 42.0605 17.768 42.5725 17.32C43.1058 16.8507 43.3725 16.296 43.3725 15.656C43.3725 14.9733 43.0845 14.4187 42.5085 13.992C41.9538 13.5653 41.0472 13.0533 39.7885 12.456C38.6365 11.944 37.6978 11.464 36.9725 11.016C36.2472 10.568 35.6285 9.97067 35.1165 9.224C34.6045 8.47733 34.3485 7.57067 34.3485 6.504C34.3485 5.30933 34.6685 4.232 35.3085 3.272C35.9485 2.29067 36.8445 1.52267 37.9965 0.967999C39.1485 0.413333 40.4605 0.136 41.9325 0.136ZM63.9918 0.743999L63.7358 3.976L59.8638 3.784H58.5838L58.4238 14.472L58.6158 21H54.2638L54.4878 14.856L54.3278 3.784H53.0477L49.1118 3.976L48.8238 3.624L49.1118 0.391998H63.7358L63.9918 0.743999Z" fill="white"/>
<path d="M77.1735 10.216L83.8295 21H78.6135L77.6535 18.952L74.2295 13.608L70.5175 19.176L69.5895 21H65.1095L71.7015 10.824L65.1735 0.391998H70.3895L71.3495 2.472L74.5815 7.496L77.9415 2.312L78.8055 0.391998H83.4135L77.1735 10.216Z" fill="#F1BC33"/>
</svg>
