<?xml version="1.0" encoding="UTF-8" standalone="no" ?>
<!DOCTYPE svg PUBLIC "-//W3C//DTD SVG 1.1//EN" "http://www.w3.org/Graphics/SVG/1.1/DTD/svg11.dtd">
<svg xmlns="http://www.w3.org/2000/svg" xmlns:xlink="http://www.w3.org/1999/xlink" version="1.1" width="300" height="95" viewBox="35.45 44.77 300 95" xml:space="preserve">
<desc>Created with Fabric.js 5.2.4</desc>
<defs>
</defs>
<rect x="0" y="0" width="100%" height="100%" fill="transparent"></rect>
<g transform="matrix(1 0 0 1 150 47.5)" id="3ac3e67c-d2fb-417c-940f-d8c2bde43d07"  >
<rect style="stroke: none; stroke-width: 1; stroke-dasharray: none; stroke-linecap: butt; stroke-dashoffset: 0; stroke-linejoin: miter; stroke-miterlimit: 4; fill: rgb(255,255,255); fill-rule: nonzero; opacity: 1; visibility: hidden;" vector-effect="non-scaling-stroke"  x="-150" y="-47.5" rx="0" ry="0" width="300" height="95" />
</g>
<g transform="matrix(Infinity NaN NaN Infinity 0 0)" id="aa6a574f-753f-417e-b811-9fdd7966b04b"  >
</g>
<g transform="matrix(0.15 0 0 0.15 492.21 159.95)" style="filter: url(#SVGID_697);" id="39311f12-8ca9-486c-83f5-40d97bd2f884"  >
<filter id="SVGID_697" y="-28%" height="156%" x="-21%" width="142%" >
	<feGaussianBlur in="SourceAlpha" stdDeviation="5"></feGaussianBlur>
	<feOffset dx="0" dy="0" result="oBlur" ></feOffset>
	<feFlood flood-color="rgb(0,0,0)" flood-opacity="1"/>
	<feComposite in2="oBlur" operator="in" />
	<feMerge>
		<feMergeNode></feMergeNode>
		<feMergeNode in="SourceGraphic"></feMergeNode>
	</feMerge>
</filter>
		<rect opacity="0" fill="rgb(0,0,0)" x="-432" y="-59.32" width="864" height="118.65"></rect>
		<text xml:space="preserve" font-family="Raleway" font-size="105" font-style="normal" font-weight="900" style="stroke: none; stroke-width: 1; stroke-dasharray: none; stroke-linecap: butt; stroke-dashoffset: 0; stroke-linejoin: miter; stroke-miterlimit: 4; fill: rgb(255,255,255); fill-rule: nonzero; opacity: 1; white-space: pre;" ><tspan x="-270.01" y="32.98" >CHOR</tspan><tspan x="32.5" y="32.98" style="fill: rgb(255,255,0); ">DIFY</tspan></text>
</g>
<g transform="matrix(0 0 0 0 442.88 112.21)"  >
<g style=""   >
</g>
</g>
<g transform="matrix(0 0 0 0 442.88 112.21)"  >
<g style=""   >
</g>
</g>
<g transform="matrix(0 0 0 0 442.88 112.21)"  >
<g style=""   >
</g>
</g>
<g transform="matrix(0 0 0 0 442.88 112.21)"  >
<g style=""   >
</g>
</g>
<g transform="matrix(0 0 0 0 442.88 112.21)"  >
<g style=""   >
</g>
</g>
<g transform="matrix(0 0 0 0 442.88 112.21)"  >
<g style=""   >
</g>
</g>
<g transform="matrix(0 0 0 0 442.88 112.21)"  >
<g style=""   >
</g>
</g>
<g transform="matrix(0 0 0 0 442.88 112.21)"  >
<g style=""   >
</g>
</g>
<g transform="matrix(0 0 0 0 442.88 20.6)"  >
<g style=""   >
</g>
</g>
<g transform="matrix(0 0 0 0 442.88 20.6)"  >
<g style=""   >
</g>
</g>
<g transform="matrix(0 0 0 0 442.88 20.6)"  >
<g style=""   >
</g>
</g>
<g transform="matrix(0 0 0 0 442.88 20.6)"  >
<g style=""   >
</g>
</g>
<g transform="matrix(0.48 0 0 0.48 184.79 92.69)" style="filter: url(#SVGID_698);" id="8c9ccfe3-d5d3-43b2-915f-310321ed8522"  >
<filter id="SVGID_698" y="-28%" height="156%" x="-22%" width="144%" >
	<feGaussianBlur in="SourceAlpha" stdDeviation="5"></feGaussianBlur>
	<feOffset dx="0" dy="0" result="oBlur" ></feOffset>
	<feFlood flood-color="rgb(0,0,0)" flood-opacity="1"/>
	<feComposite in2="oBlur" operator="in" />
	<feMerge>
		<feMergeNode></feMergeNode>
		<feMergeNode in="SourceGraphic"></feMergeNode>
	</feMerge>
</filter>
		<text xml:space="preserve" font-family="Raleway" font-size="105" font-style="normal" font-weight="900" style="stroke: none; stroke-width: 1; stroke-dasharray: none; stroke-linecap: butt; stroke-dashoffset: 0; stroke-linejoin: miter; stroke-miterlimit: 4; fill: rgb(255,255,255); fill-rule: nonzero; opacity: 1; white-space: pre;" ><tspan x="-270.01" y="32.98" >CHOR</tspan><tspan x="32.5" y="32.98" style="fill: rgb(227,255,0); ">DIFY</tspan></text>
</g>
</svg>